<?xml version="1.0" encoding="UTF-8" standalone="no"?><!DOCTYPE svg PUBLIC "-//W3C//DTD SVG 1.1//EN" "http://www.w3.org/Graphics/SVG/1.1/DTD/svg11.dtd"><svg width="100%" height="100%" viewBox="0 0 240 240" version="1.1" xmlns="http://www.w3.org/2000/svg" xmlns:xlink="http://www.w3.org/1999/xlink" xml:space="preserve" xmlns:serif="http://www.serif.com/" style="fill-rule:evenodd;clip-rule:evenodd;stroke-linecap:round;stroke-linejoin:round;stroke-miterlimit:1.5;"><rect id="web-1" serif:id="web 1" x="0" y="0" width="240" height="240" style="fill:none;"/><g id="web-11" serif:id="web 1"><g id="p1"><g><path d="M125.714,131.21c-0.527,-0.527 -1.383,-0.527 -1.909,0c-0.527,0.527 -0.527,1.382 0,1.909l93.546,93.546c0.527,0.527 1.382,0.527 1.909,0c0.527,-0.526 0.527,-1.382 0,-1.909l-93.546,-93.546Z" style="fill:#607d8b;"/><path d="M124.147,130.962c-0.664,0.338 -0.929,1.151 -0.59,1.815c0.338,0.664 1.152,0.928 1.815,0.59l81.792,-41.675c0.663,-0.338 0.928,-1.151 0.589,-1.815c-0.338,-0.664 -1.151,-0.928 -1.815,-0.59l-81.791,41.675Z" style="fill:#607d8b;"/></g><path d="M144.614,152.019c0,0 -6.912,-13.447 2.08,-30.922" style="fill:none;stroke:#607d8b;stroke-width:2.5px;"/><path d="M168.573,175.979c0,0 -19.898,-37.501 7.311,-69.651" style="fill:none;stroke:#607d8b;stroke-width:2.5px;"/><path d="M191.279,198.684c0,0 -29.217,-60.214 14.73,-108.06" style="fill:none;stroke:#607d8b;stroke-width:2.5px;"/></g><g id="p2"><g><path d="M125.066,130.022c-0.665,0.337 -0.931,1.15 -0.594,1.814c0.337,0.665 1.15,0.931 1.814,0.594l105.964,-53.703c0.664,-0.337 0.93,-1.15 0.594,-1.815c-0.337,-0.664 -1.15,-0.93 -1.815,-0.594l-105.963,53.704Z" style="fill:#607d8b;"/><path d="M124.342,131.434c0.115,0.736 0.806,1.241 1.543,1.126c0.736,-0.115 1.24,-0.806 1.125,-1.542l-14.165,-90.697c-0.115,-0.737 -0.806,-1.241 -1.542,-1.126c-0.736,0.115 -1.24,0.806 -1.125,1.542l14.164,90.697Z" style="fill:#607d8b;"/></g><path d="M150.722,118.533c0,0 -14.931,2.386 -28.741,-11.596" style="fill:none;stroke:#607d8b;stroke-width:2.5px;"/><path d="M180.946,103.215c0,0 -41.83,7.246 -63.921,-28.614" style="fill:none;stroke:#607d8b;stroke-width:2.5px;"/><path d="M209.588,88.699c0,0 -66.316,9.036 -98.117,-47.613" style="fill:none;stroke:#607d8b;stroke-width:2.5px;"/></g><g id="p3"><g><path d="M126.013,133.115c0.336,-0.665 0.068,-1.477 -0.597,-1.813c-0.665,-0.336 -1.478,-0.068 -1.813,0.597l-53.504,106.065c-0.336,0.665 -0.068,1.477 0.597,1.813c0.665,0.336 1.478,0.068 1.813,-0.597l53.504,-106.065Z" style="fill:#607d8b;"/><path d="M125.759,131.549c-0.529,-0.524 -1.384,-0.521 -1.909,0.008c-0.525,0.529 -0.521,1.384 0.008,1.909l65.171,64.647c0.529,0.525 1.384,0.521 1.909,-0.008c0.525,-0.528 0.521,-1.384 -0.008,-1.909l-65.171,-64.647Z" style="fill:#607d8b;"/></g><path d="M112.162,157.577c0,0 10.61,-10.772 30.02,-7.699" style="fill:none;stroke:#607d8b;stroke-width:2.5px;"/><path d="M96.901,187.83c0,0 29.393,-30.632 68.442,-14.847" style="fill:none;stroke:#607d8b;stroke-width:2.5px;"/><path d="M82.439,216.499c0,0 48.051,-46.589 107.243,-19.817" style="fill:none;stroke:#607d8b;stroke-width:2.5px;"/></g><g id="p4"><g><path d="M124.937,133.58c0.736,0.115 1.427,-0.388 1.543,-1.125c0.115,-0.736 -0.389,-1.427 -1.125,-1.542l-117.362,-18.4c-0.736,-0.116 -1.427,0.388 -1.542,1.124c-0.116,0.736 0.388,1.428 1.124,1.543l117.362,18.4Z" style="fill:#607d8b;"/><path d="M126.349,132.858c0.338,-0.665 0.072,-1.478 -0.592,-1.815c-0.665,-0.337 -1.478,-0.072 -1.815,0.593l-41.547,81.856c-0.337,0.664 -0.071,1.477 0.593,1.815c0.664,0.337 1.478,0.071 1.815,-0.593l41.546,-81.856Z" style="fill:#607d8b;"/></g><path d="M97.406,127.897c0,0 13.507,6.795 16.534,26.213" style="fill:none;stroke:#607d8b;stroke-width:2.5px;"/><path d="M63.931,122.649c0,0 38.17,18.583 35.12,60.591" style="fill:none;stroke:#607d8b;stroke-width:2.5px;"/><path d="M32.208,117.676c0,0 59.079,31.448 51.75,95.999" style="fill:none;stroke:#607d8b;stroke-width:2.5px;"/></g><g id="p5"><g><path d="M124.334,132.555c0.116,0.736 0.808,1.24 1.544,1.124c0.736,-0.116 1.239,-0.807 1.123,-1.543l-20.571,-130.686c-0.116,-0.736 -0.807,-1.24 -1.543,-1.124c-0.736,0.116 -1.24,0.808 -1.124,1.544l20.571,130.685Z" style="fill:#607d8b;"/><path d="M125.455,133.678c0.736,0.118 1.428,-0.385 1.546,-1.12c0.117,-0.736 -0.385,-1.429 -1.121,-1.546l-90.653,-14.446c-0.735,-0.118 -1.428,0.385 -1.545,1.12c-0.117,0.736 0.385,1.429 1.121,1.546l90.652,14.446Z" style="fill:#607d8b;"/></g><path d="M121.302,104.608c0,0 -2.327,14.94 -19.881,23.775" style="fill:none;stroke:#607d8b;stroke-width:2.5px;"/><path d="M116.033,71.137c0,0 -5.984,42.029 -46.904,52.006" style="fill:none;stroke:#607d8b;stroke-width:2.5px;"/><path d="M111.04,39.417c0,0 -11.819,65.876 -75.508,78.692" style="fill:none;stroke:#607d8b;stroke-width:2.5px;"/></g></g></svg>