<?xml version="1.0" encoding="UTF-8" standalone="no"?><!DOCTYPE svg PUBLIC "-//W3C//DTD SVG 1.1//EN" "http://www.w3.org/Graphics/SVG/1.1/DTD/svg11.dtd"><svg width="100%" height="100%" viewBox="0 0 240 240" version="1.1" xmlns="http://www.w3.org/2000/svg" xmlns:xlink="http://www.w3.org/1999/xlink" xml:space="preserve" xmlns:serif="http://www.serif.com/" style="fill-rule:evenodd;clip-rule:evenodd;stroke-linecap:round;stroke-linejoin:round;stroke-miterlimit:1.5;"><rect id="web-2" serif:id="web 2" x="0" y="0" width="240" height="240" style="fill:none;"/><g id="p1" opacity="0.5"><g><path d="M126.323,131.099c-0.526,-0.526 -1.381,-0.526 -1.907,0c-0.527,0.526 -0.527,1.381 0,1.907l93.469,93.469c0.526,0.527 1.381,0.527 1.907,0c0.527,-0.526 0.527,-1.381 0,-1.907l-93.469,-93.469Z" style="fill:#607d8b;"/><path d="M124.758,130.851c-0.664,0.338 -0.928,1.151 -0.59,1.814c0.338,0.663 1.151,0.928 1.814,0.59l81.724,-41.641c0.663,-0.338 0.927,-1.15 0.589,-1.814c-0.338,-0.663 -1.151,-0.927 -1.814,-0.589l-81.723,41.64Z" style="fill:#607d8b;"/></g><path d="M145.208,151.891c0,0 -6.907,-13.436 2.078,-30.896" style="fill:none;stroke:#607d8b;stroke-width:2.5px;"/><path d="M169.148,175.831c0,0 -19.883,-37.47 7.304,-69.594" style="fill:none;stroke:#607d8b;stroke-width:2.5px;"/><path d="M191.834,198.517c0,0 -29.192,-60.164 14.718,-107.97" style="fill:none;stroke:#607d8b;stroke-width:2.5px;"/></g><g id="p2" opacity="0.5"><g><path d="M125.676,129.912c-0.664,0.337 -0.93,1.149 -0.593,1.813c0.336,0.664 1.149,0.93 1.813,0.593l105.875,-53.659c0.664,-0.336 0.93,-1.148 0.594,-1.813c-0.337,-0.664 -1.149,-0.929 -1.813,-0.593l-105.876,53.659Z" style="fill:#607d8b;"/><path d="M124.953,131.323c0.115,0.736 0.806,1.24 1.541,1.125c0.736,-0.115 1.24,-0.806 1.125,-1.541l-14.153,-90.622c-0.115,-0.735 -0.806,-1.239 -1.541,-1.124c-0.736,0.114 -1.239,0.805 -1.125,1.54l14.153,90.622Z" style="fill:#607d8b;"/></g><path d="M151.311,118.432c0,0 -14.918,2.385 -28.717,-11.585" style="fill:none;stroke:#607d8b;stroke-width:2.5px;"/><path d="M181.51,103.127c0,0 -41.796,7.24 -63.869,-28.59" style="fill:none;stroke:#607d8b;stroke-width:2.5px;"/><path d="M210.128,88.623c0,0 -66.26,9.029 -98.036,-47.573" style="fill:none;stroke:#607d8b;stroke-width:2.5px;"/></g><g id="p3" opacity="0.5"><g><path d="M126.623,133.003c0.335,-0.665 0.068,-1.477 -0.597,-1.812c-0.665,-0.335 -1.476,-0.068 -1.812,0.597l-53.459,105.976c-0.336,0.665 -0.068,1.477 0.597,1.812c0.664,0.335 1.476,0.068 1.811,-0.597l53.46,-105.976Z" style="fill:#607d8b;"/><path d="M126.369,131.438c-0.529,-0.524 -1.384,-0.521 -1.908,0.008c-0.524,0.528 -0.521,1.383 0.008,1.907l65.117,64.594c0.529,0.524 1.384,0.521 1.908,-0.008c0.524,-0.528 0.521,-1.383 -0.008,-1.907l-65.117,-64.594Z" style="fill:#607d8b;"/></g><path d="M112.783,157.444c0,0 10.601,-10.763 29.995,-7.692" style="fill:none;stroke:#607d8b;stroke-width:2.5px;"/><path d="M97.535,187.672c0,0 29.368,-30.607 68.385,-14.835" style="fill:none;stroke:#607d8b;stroke-width:2.5px;"/><path d="M83.084,216.317c0,0 48.011,-46.55 107.155,-19.8" style="fill:none;stroke:#607d8b;stroke-width:2.5px;"/></g><g id="p4" opacity="0.5"><g><path d="M125.547,133.467c0.736,0.116 1.426,-0.388 1.542,-1.123c0.115,-0.736 -0.388,-1.427 -1.124,-1.542l-117.264,-18.385c-0.736,-0.115 -1.426,0.389 -1.542,1.124c-0.115,0.735 0.388,1.426 1.124,1.542l117.264,18.384Z" style="fill:#607d8b;"/><path d="M126.959,132.745c0.337,-0.663 0.071,-1.476 -0.593,-1.813c-0.663,-0.337 -1.476,-0.071 -1.813,0.592l-41.512,81.789c-0.337,0.664 -0.072,1.476 0.592,1.813c0.664,0.337 1.477,0.072 1.813,-0.592l41.513,-81.789Z" style="fill:#607d8b;"/></g><path d="M98.039,127.789c0,0 13.496,6.79 16.52,26.192" style="fill:none;stroke:#607d8b;stroke-width:2.5px;"/><path d="M64.592,122.545c0,0 38.138,18.568 35.091,60.541" style="fill:none;stroke:#607d8b;stroke-width:2.5px;"/><path d="M32.895,117.576c0,0 59.031,31.423 51.707,95.92" style="fill:none;stroke:#607d8b;stroke-width:2.5px;"/></g><g id="p5" opacity="0.5"><g><path d="M124.945,132.443c0.116,0.736 0.807,1.239 1.542,1.123c0.736,-0.116 1.239,-0.807 1.123,-1.542l-20.554,-130.577c-0.116,-0.736 -0.807,-1.239 -1.542,-1.123c-0.736,0.116 -1.239,0.807 -1.123,1.542l20.554,130.577Z" style="fill:#607d8b;"/><path d="M126.065,133.566c0.735,0.117 1.427,-0.385 1.544,-1.12c0.117,-0.735 -0.384,-1.427 -1.119,-1.545l-90.578,-14.434c-0.735,-0.117 -1.427,0.385 -1.544,1.12c-0.117,0.735 0.384,1.427 1.12,1.544l90.577,14.435Z" style="fill:#607d8b;"/></g><path d="M121.915,104.519c0,0 -2.324,14.928 -19.864,23.756" style="fill:none;stroke:#607d8b;stroke-width:2.5px;"/><path d="M116.651,71.075c0,0 -5.979,41.995 -46.865,51.964" style="fill:none;stroke:#607d8b;stroke-width:2.5px;"/><path d="M111.662,39.382c0,0 -11.809,65.822 -75.445,78.627" style="fill:none;stroke:#607d8b;stroke-width:2.5px;"/></g><g id="body"><ellipse cx="110.979" cy="152.637" rx="24.003" ry="22.93" style="fill:#333;"/><ellipse cx="105.196" cy="159.198" rx="8.093" ry="9.442" style="fill:#fff;"/><ellipse cx="117.171" cy="159.198" rx="8.093" ry="9.442" style="fill:#fff;"/><ellipse cx="107.473" cy="159.198" rx="1.619" ry="2.293" style="fill:#333;"/><ellipse cx="114.486" cy="159.198" rx="1.619" ry="2.293" style="fill:#333;"/></g><g id="legs2"><path d="M83.578,178.265c0,0 -0.485,-6.009 1.618,-8.546c2.356,-2.842 6.547,-3.69 7.576,-3.776" style="fill:none;stroke:#333;stroke-width:2.5px;"/><path d="M73.953,163.479c0,0 1.718,-5.779 4.596,-7.385c3.223,-1.8 7.437,-1.077 8.428,-0.786" style="fill:none;stroke:#333;stroke-width:2.5px;"/><path d="M72.665,147.093c0,0 4.414,-4.362 7.767,-4.441c3.756,-0.088 7.127,2.551 7.858,3.279" style="fill:none;stroke:#333;stroke-width:2.5px;"/></g><g id="legs21" serif:id="legs2"><path d="M134.123,182.708c0,0 0.485,-6.009 -1.618,-8.546c-2.356,-2.842 -6.547,-3.689 -7.576,-3.776" style="fill:none;stroke:#333;stroke-width:2.5px;"/><path d="M143.748,167.922c0,0 -1.718,-5.778 -4.596,-7.385c-3.223,-1.8 -7.437,-1.076 -8.428,-0.786" style="fill:none;stroke:#333;stroke-width:2.5px;"/><path d="M145.036,151.536c0,0 -4.414,-4.362 -7.767,-4.441c-3.756,-0.088 -7.127,2.551 -7.859,3.279" style="fill:none;stroke:#333;stroke-width:2.5px;"/></g></svg>