<?xml version="1.0" encoding="UTF-8" standalone="no"?><!DOCTYPE svg PUBLIC "-//W3C//DTD SVG 1.1//EN" "http://www.w3.org/Graphics/SVG/1.1/DTD/svg11.dtd"><svg width="100%" height="100%" viewBox="0 0 240 240" version="1.1" xmlns="http://www.w3.org/2000/svg" xmlns:xlink="http://www.w3.org/1999/xlink" xml:space="preserve" xmlns:serif="http://www.serif.com/" style="fill-rule:evenodd;clip-rule:evenodd;stroke-linecap:round;stroke-linejoin:round;stroke-miterlimit:1.5;"><rect id="web-3" serif:id="web 3" x="0" y="0" width="240" height="240" style="fill:none;"/><g id="p1" opacity="0.5"><g><path d="M126.083,131.099c-0.526,-0.526 -1.381,-0.526 -1.907,0c-0.527,0.526 -0.527,1.381 0,1.907l93.469,93.469c0.526,0.527 1.381,0.527 1.907,0c0.527,-0.526 0.527,-1.381 0,-1.907l-93.469,-93.469Z" style="fill:#607d8b;"/><path d="M124.518,130.851c-0.664,0.338 -0.928,1.151 -0.59,1.814c0.338,0.663 1.151,0.928 1.814,0.59l81.724,-41.641c0.663,-0.338 0.927,-1.15 0.589,-1.814c-0.338,-0.663 -1.151,-0.927 -1.814,-0.589l-81.723,41.64Z" style="fill:#607d8b;"/></g><path d="M144.968,151.891c0,0 -6.907,-13.436 2.078,-30.896" style="fill:none;stroke:#607d8b;stroke-width:2.5px;"/><path d="M168.908,175.831c0,0 -19.883,-37.47 7.304,-69.594" style="fill:none;stroke:#607d8b;stroke-width:2.5px;"/><path d="M191.594,198.517c0,0 -29.192,-60.164 14.718,-107.97" style="fill:none;stroke:#607d8b;stroke-width:2.5px;"/></g><g id="p2" opacity="0.5"><g><path d="M125.436,129.912c-0.664,0.337 -0.93,1.149 -0.593,1.813c0.336,0.664 1.149,0.93 1.813,0.593l105.875,-53.659c0.664,-0.336 0.93,-1.148 0.594,-1.813c-0.337,-0.664 -1.149,-0.929 -1.813,-0.593l-105.876,53.659Z" style="fill:#607d8b;"/><path d="M124.713,131.323c0.115,0.736 0.806,1.24 1.541,1.125c0.736,-0.115 1.24,-0.806 1.125,-1.541l-14.153,-90.622c-0.115,-0.735 -0.806,-1.239 -1.541,-1.124c-0.736,0.114 -1.239,0.805 -1.125,1.54l14.153,90.622Z" style="fill:#607d8b;"/></g><path d="M151.071,118.432c0,0 -14.918,2.385 -28.717,-11.585" style="fill:none;stroke:#607d8b;stroke-width:2.5px;"/><path d="M181.27,103.127c0,0 -41.796,7.24 -63.869,-28.59" style="fill:none;stroke:#607d8b;stroke-width:2.5px;"/><path d="M209.888,88.623c0,0 -66.26,9.029 -98.036,-47.573" style="fill:none;stroke:#607d8b;stroke-width:2.5px;"/></g><g id="p3" opacity="0.5"><g><path d="M126.383,133.003c0.335,-0.665 0.068,-1.477 -0.597,-1.812c-0.665,-0.335 -1.476,-0.068 -1.812,0.597l-53.459,105.976c-0.336,0.665 -0.068,1.477 0.597,1.812c0.664,0.335 1.476,0.068 1.811,-0.597l53.46,-105.976Z" style="fill:#607d8b;"/><path d="M126.129,131.438c-0.529,-0.524 -1.384,-0.521 -1.908,0.008c-0.524,0.528 -0.521,1.383 0.008,1.907l65.117,64.594c0.529,0.524 1.384,0.521 1.908,-0.008c0.524,-0.528 0.521,-1.383 -0.008,-1.907l-65.117,-64.594Z" style="fill:#607d8b;"/></g><path d="M112.543,157.444c0,0 10.601,-10.763 29.995,-7.692" style="fill:none;stroke:#607d8b;stroke-width:2.5px;"/><path d="M97.295,187.672c0,0 29.368,-30.607 68.385,-14.835" style="fill:none;stroke:#607d8b;stroke-width:2.5px;"/><path d="M82.844,216.317c0,0 48.011,-46.55 107.155,-19.8" style="fill:none;stroke:#607d8b;stroke-width:2.5px;"/></g><g id="p4" opacity="0.5"><g><path d="M125.307,133.467c0.736,0.116 1.426,-0.388 1.542,-1.123c0.115,-0.736 -0.388,-1.427 -1.124,-1.542l-117.264,-18.385c-0.736,-0.115 -1.426,0.389 -1.542,1.124c-0.115,0.735 0.388,1.426 1.124,1.542l117.264,18.384Z" style="fill:#607d8b;"/><path d="M126.719,132.745c0.337,-0.663 0.071,-1.476 -0.593,-1.813c-0.663,-0.337 -1.476,-0.071 -1.813,0.592l-41.512,81.789c-0.337,0.664 -0.072,1.476 0.592,1.813c0.664,0.337 1.477,0.072 1.813,-0.592l41.513,-81.789Z" style="fill:#607d8b;"/></g><path d="M97.799,127.789c0,0 13.496,6.79 16.52,26.192" style="fill:none;stroke:#607d8b;stroke-width:2.5px;"/><path d="M64.352,122.545c0,0 38.138,18.568 35.091,60.541" style="fill:none;stroke:#607d8b;stroke-width:2.5px;"/><path d="M32.655,117.576c0,0 59.031,31.423 51.707,95.92" style="fill:none;stroke:#607d8b;stroke-width:2.5px;"/></g><g id="p5" opacity="0.5"><g><path d="M124.705,132.443c0.116,0.736 0.807,1.239 1.542,1.123c0.736,-0.116 1.239,-0.807 1.123,-1.542l-20.554,-130.577c-0.116,-0.736 -0.807,-1.239 -1.542,-1.123c-0.736,0.116 -1.239,0.807 -1.123,1.542l20.554,130.577Z" style="fill:#607d8b;"/><path d="M125.825,133.566c0.735,0.117 1.427,-0.385 1.544,-1.12c0.117,-0.735 -0.384,-1.427 -1.119,-1.545l-90.578,-14.434c-0.735,-0.117 -1.427,0.385 -1.544,1.12c-0.117,0.735 0.384,1.427 1.12,1.544l90.577,14.435Z" style="fill:#607d8b;"/></g><path d="M121.675,104.519c0,0 -2.324,14.928 -19.864,23.756" style="fill:none;stroke:#607d8b;stroke-width:2.5px;"/><path d="M116.411,71.075c0,0 -5.979,41.995 -46.865,51.964" style="fill:none;stroke:#607d8b;stroke-width:2.5px;"/><path d="M111.422,39.382c0,0 -11.809,65.822 -75.445,78.627" style="fill:none;stroke:#607d8b;stroke-width:2.5px;"/></g><g id="legs2"><path d="M55.188,165.88c0,0 -0.485,-6.009 1.619,-8.546c2.355,-2.842 6.546,-3.689 7.575,-3.776" style="fill:none;stroke:#333;stroke-width:2.5px;"/><path d="M45.563,151.094c0,0 1.718,-5.779 4.596,-7.385c3.223,-1.8 7.437,-1.076 8.428,-0.786" style="fill:none;stroke:#333;stroke-width:2.5px;"/><path d="M44.276,134.708c0,0 4.413,-4.362 7.767,-4.441c3.755,-0.088 7.126,2.551 7.858,3.279" style="fill:none;stroke:#333;stroke-width:2.5px;"/></g><g id="legs21" serif:id="legs2"><path d="M105.734,170.323c0,0 0.484,-6.008 -1.619,-8.546c-2.356,-2.842 -6.547,-3.689 -7.576,-3.776" style="fill:none;stroke:#333;stroke-width:2.5px;"/><path d="M115.358,155.537c0,0 -1.718,-5.778 -4.596,-7.385c-3.222,-1.799 -7.437,-1.076 -8.427,-0.785" style="fill:none;stroke:#333;stroke-width:2.5px;"/><path d="M116.646,139.152c0,0 -4.414,-4.363 -7.767,-4.441c-3.755,-0.089 -7.126,2.55 -7.858,3.279" style="fill:none;stroke:#333;stroke-width:2.5px;"/></g><g id="body"><ellipse cx="82.59" cy="140.252" rx="24.003" ry="22.93" style="fill:#333;"/><ellipse cx="76.807" cy="146.813" rx="8.093" ry="9.442" style="fill:#fff;"/><ellipse cx="88.781" cy="146.813" rx="8.093" ry="9.442" style="fill:#fff;"/><ellipse cx="79.083" cy="146.813" rx="1.619" ry="2.293" style="fill:#333;"/><ellipse cx="86.097" cy="146.813" rx="1.619" ry="2.293" style="fill:#333;"/></g><g id="legs22" serif:id="legs2"><path d="M137.334,149.31c0,0 -0.379,-4.699 1.266,-6.684c1.843,-2.222 5.121,-2.885 5.925,-2.953" style="fill:none;stroke:#333;stroke-width:2.5px;"/><path d="M129.807,137.746c0,0 1.343,-4.519 3.594,-5.776c2.521,-1.408 5.817,-0.842 6.592,-0.614" style="fill:none;stroke:#333;stroke-width:2.5px;"/><path d="M128.8,124.93c0,0 3.452,-3.411 6.074,-3.473c2.937,-0.069 5.574,1.995 6.146,2.565" style="fill:none;stroke:#333;stroke-width:2.5px;"/></g><g id="legs23" serif:id="legs2"><path d="M176.867,152.786c0,0 0.379,-4.7 -1.266,-6.685c-1.842,-2.222 -5.12,-2.885 -5.925,-2.953" style="fill:none;stroke:#333;stroke-width:2.5px;"/><path d="M184.394,141.221c0,0 -1.343,-4.519 -3.594,-5.776c-2.52,-1.407 -5.817,-0.842 -6.591,-0.614" style="fill:none;stroke:#333;stroke-width:2.5px;"/><path d="M185.402,128.406c0,0 -3.452,-3.412 -6.075,-3.474c-2.937,-0.069 -5.574,1.995 -6.146,2.565" style="fill:none;stroke:#333;stroke-width:2.5px;"/></g><g id="body1" serif:id="body"><ellipse cx="158.766" cy="129.266" rx="18.773" ry="17.934" style="fill:#333;"/><ellipse cx="154.243" cy="134.398" rx="6.33" ry="7.385" style="fill:#fff;"/><ellipse cx="163.608" cy="134.398" rx="6.33" ry="7.385" style="fill:#fff;"/><path d="M154.55,134.398c0,-0.745 0.605,-1.349 1.349,-1.349c0.744,0 1.349,0.604 1.349,1.349c0,0.744 -0.605,1.348 -1.349,1.348c-0.744,0 -1.349,-0.604 -1.349,-1.348Z" style="fill:#333;"/><path d="M160.284,134.398c0,-0.745 0.604,-1.349 1.349,-1.349c0.744,0 1.348,0.604 1.348,1.349c0,0.744 -0.604,1.348 -1.348,1.348c-0.745,0 -1.349,-0.604 -1.349,-1.348Z" style="fill:#333;"/><circle cx="145.849" cy="136.944" r="1.484" style="fill:#f7bacf;"/><circle cx="172.016" cy="136.944" r="1.484" style="fill:#f7bacf;"/></g><path d="M126.475,72.382c4.23,-3.244 10.546,-1.584 12.99,1.963c2.445,3.547 1.016,8.98 -3.57,13.583c-3.282,3.494 -10.038,6.075 -15.49,7.546c-4.023,-3.962 -8.637,-9.531 -9.777,-14.187c-1.73,-6.264 -0.301,-11.697 3.571,-13.584c3.872,-1.886 10.189,-0.226 12.276,4.679Z" style="fill:#fe80ab;"/><path d="M93.919,91.073c-0.448,-2.305 1.448,-4.488 3.328,-4.77c1.88,-0.281 3.742,1.337 4.657,4.047c0.733,1.978 0.423,5.156 -0.068,7.603c-2.354,0.827 -5.458,1.577 -7.519,1.127c-2.811,-0.527 -4.674,-2.146 -4.657,-4.046c0.017,-1.901 1.914,-4.083 4.259,-3.961Z" style="fill:#f7bacf;"/><path d="M137.877,107.054c1.528,0.251 2.443,1.926 2.186,3.153c-0.256,1.228 -1.685,2.008 -3.571,1.952c-1.392,-0.001 -3.287,-0.922 -4.687,-1.788c0.028,-1.646 0.276,-3.738 1.027,-4.91c0.971,-1.617 2.4,-2.398 3.572,-1.951c1.172,0.447 2.087,2.121 1.473,3.544Z" style="fill:#f7bacf;"/></svg>